<?xml version="1.0" standalone="no"?>
<!DOCTYPE svg PUBLIC "-//W3C//DTD SVG 20010904//EN"
 "http://www.w3.org/TR/2001/REC-SVG-20010904/DTD/svg10.dtd">
<svg version="1.0" xmlns="http://www.w3.org/2000/svg"
 width="2560.000000pt" height="1037.000000pt" viewBox="0 0 2560.000000 1037.000000"
 preserveAspectRatio="xMidYMid meet">

<g transform="translate(0.000000,1037.000000) scale(0.100000,-0.100000)"
fill="#000000" stroke="none">
<path d="M13254 10112 c-36 -24 -46 -106 -69 -622 -9 -190 -20 -388 -26 -439
-44 -425 -60 -1962 -26 -2605 10 -181 20 -332 22 -336 3 -4 14 -147 25 -316
11 -170 25 -356 31 -414 20 -200 89 -681 114 -793 13 -62 29 -146 34 -189 6
-42 19 -98 30 -125 10 -26 26 -84 35 -127 41 -200 196 -614 301 -801 176 -317
319 -508 575 -765 167 -169 276 -255 484 -382 113 -70 392 -202 481 -229 33
-9 94 -29 135 -43 80 -27 312 -78 445 -98 123 -19 596 -16 715 5 236 40 554
129 635 177 17 10 53 27 81 38 28 10 95 45 149 78 54 32 111 66 125 74 27 16
33 20 160 119 196 151 381 360 521 588 40 64 241 451 251 483 7 21 91 -13 113
-47 57 -87 308 -335 512 -505 98 -81 118 -96 321 -232 81 -54 159 -107 173
-116 78 -54 518 -268 583 -284 16 -4 58 -20 92 -37 35 -16 68 -29 73 -29 6 0
64 -18 128 -39 263 -87 694 -171 993 -193 154 -11 550 -4 680 12 189 23 475
73 575 100 227 62 436 130 460 150 7 5 37 19 68 29 63 22 282 132 372 187 33
20 76 46 96 58 90 53 275 200 382 305 157 152 361 409 401 504 7 18 24 51 38
73 72 118 168 408 195 593 22 153 23 513 0 698 -24 199 -118 491 -204 629
-139 224 -223 324 -387 458 -166 136 -256 191 -449 277 -173 77 -390 141 -687
204 -36 7 -137 21 -224 29 -88 9 -164 20 -168 24 -22 22 50 78 372 292 20 14
57 40 81 58 24 17 86 62 138 100 52 37 108 79 125 93 17 14 54 41 81 59 28 19
85 61 127 94 42 34 105 82 140 108 241 181 940 765 1202 1004 59 54 134 122
167 149 32 28 107 95 166 150 59 55 127 116 151 135 23 18 45 44 48 56 8 33
-20 79 -70 113 -24 17 -46 35 -48 41 -1 5 -39 42 -84 82 -106 95 -574 524
-877 803 -131 121 -253 229 -271 239 -20 12 -41 17 -57 13 -15 -4 -92 -86
-214 -229 -104 -122 -242 -278 -305 -348 -63 -69 -137 -152 -165 -185 -113
-135 -1180 -1197 -1410 -1404 -106 -95 -215 -189 -395 -339 -113 -94 -222
-185 -243 -203 -21 -18 -57 -44 -80 -59 -23 -15 -89 -64 -146 -109 -57 -44
-198 -144 -315 -221 -271 -181 -296 -196 -516 -321 -52 -29 -98 -58 -102 -64
-13 -18 -9 -138 7 -195 8 -30 24 -95 36 -145 11 -49 36 -155 54 -235 19 -80
39 -174 45 -210 6 -36 24 -117 40 -180 16 -63 34 -142 41 -175 8 -36 23 -71
39 -88 31 -35 41 -35 270 -19 324 23 893 9 1090 -28 58 -10 161 -29 228 -40
68 -11 157 -32 198 -45 40 -13 90 -27 111 -31 33 -5 150 -53 248 -100 45 -21
167 -94 227 -136 149 -103 309 -333 337 -483 37 -199 -15 -461 -123 -614 -59
-85 -198 -220 -265 -259 -113 -66 -210 -111 -274 -128 -34 -8 -97 -26 -140
-40 -115 -35 -236 -53 -466 -66 -223 -12 -528 -1 -712 27 -130 19 -434 90
-511 119 -35 13 -79 27 -98 31 -19 4 -62 20 -95 35 -33 15 -78 33 -100 40 -82
26 -394 194 -485 262 -14 10 -45 32 -70 50 -130 92 -339 292 -430 412 -117
153 -218 318 -249 407 -90 254 -118 364 -146 568 -14 96 -27 182 -30 190 -18
60 -27 210 -34 581 -6 379 -9 429 -25 459 l-18 34 -321 -6 c-350 -7 -652 -21
-680 -32 -10 -4 -25 -22 -34 -39 -14 -27 -18 -93 -25 -481 -8 -503 -21 -757
-43 -859 -9 -38 -24 -131 -35 -206 -21 -152 -97 -474 -134 -568 -13 -34 -27
-76 -31 -94 -6 -30 -64 -168 -101 -243 -71 -142 -162 -271 -273 -387 -156
-163 -265 -234 -481 -312 l-125 -46 -240 0 -241 0 -143 46 c-279 89 -443 198
-631 419 -99 117 -171 225 -235 355 -31 63 -64 129 -72 145 -30 58 -114 299
-138 396 -14 54 -30 110 -35 124 -6 15 -24 102 -41 194 -16 91 -36 200 -44
242 -14 77 -28 216 -66 669 -25 300 -27 715 -5 1005 9 110 23 315 31 455 9
140 22 309 30 375 28 251 66 546 90 700 14 88 32 207 40 265 21 143 90 502
122 630 14 58 34 148 45 200 10 52 30 127 43 167 14 39 25 79 25 88 0 10 7 48
17 86 16 66 16 70 -3 90 -42 47 -139 77 -324 103 -58 8 -139 24 -180 35 -41
11 -120 28 -175 36 -55 9 -131 25 -170 35 -38 11 -137 31 -219 45 -83 14 -175
32 -206 40 -31 8 -116 26 -190 40 -74 13 -166 34 -205 45 -71 20 -141 26 -161
12z"/>
<path d="M12168 10089 c-20 -11 -224 -65 -435 -115 -78 -18 -150 -37 -160 -42
-10 -6 -62 -19 -115 -31 -53 -11 -118 -28 -145 -37 -26 -10 -100 -29 -163 -44
-63 -15 -203 -51 -310 -79 -107 -29 -238 -63 -290 -76 -146 -37 -152 -52 -93
-248 20 -67 51 -176 69 -242 18 -66 52 -187 75 -270 72 -259 118 -435 153
-585 18 -80 41 -170 49 -200 9 -30 25 -104 37 -165 11 -60 28 -136 36 -168 8
-33 29 -129 45 -215 17 -87 37 -182 44 -213 8 -30 24 -118 35 -194 11 -77 29
-175 40 -220 10 -44 24 -132 30 -195 6 -63 22 -173 35 -245 14 -71 32 -213 40
-315 9 -102 25 -273 37 -380 17 -163 21 -255 21 -560 0 -201 -6 -428 -12 -505
-17 -208 -59 -501 -81 -576 -11 -36 -26 -97 -34 -136 -15 -70 -100 -292 -151
-394 -67 -132 -121 -207 -239 -327 -66 -67 -126 -122 -132 -122 -6 0 -19 9
-29 20 -17 19 -18 40 -12 333 9 397 -3 618 -47 907 -60 388 -154 720 -303
1070 -44 104 -129 276 -154 311 -10 15 -28 46 -39 70 -49 105 -231 353 -373
510 -120 131 -253 258 -340 321 -29 21 -63 48 -77 61 -14 12 -45 34 -70 48
-25 14 -76 45 -115 69 -95 59 -266 134 -405 177 -161 50 -167 51 -345 64 -240
17 -537 -3 -637 -42 -26 -10 -75 -25 -110 -33 -100 -23 -362 -147 -439 -208
-20 -15 -40 -28 -44 -28 -16 0 -196 -154 -271 -232 -77 -80 -174 -207 -220
-287 -12 -20 -37 -64 -57 -99 -74 -127 -162 -348 -188 -467 -10 -49 -26 -115
-34 -145 -31 -114 -47 -638 -26 -870 23 -253 162 -730 276 -948 14 -26 34 -67
45 -92 70 -156 251 -436 380 -590 160 -190 410 -427 569 -540 35 -25 82 -59
105 -75 99 -72 435 -248 547 -285 34 -12 79 -30 99 -40 20 -10 72 -28 116 -39
43 -11 106 -30 139 -41 33 -11 103 -27 155 -36 122 -19 128 -21 146 -50 15
-22 15 -26 1 -48 -43 -65 -257 -193 -386 -232 -42 -12 -95 -29 -117 -38 -73
-27 -315 -50 -534 -50 -258 -1 -629 27 -729 54 -40 11 -126 30 -191 40 -66 11
-159 32 -207 46 -123 36 -175 36 -213 -1 -16 -15 -39 -48 -50 -72 -12 -25 -37
-68 -56 -95 -18 -28 -34 -55 -34 -62 0 -6 -14 -31 -30 -56 -17 -25 -40 -63
-51 -85 -28 -57 -176 -309 -269 -460 -124 -201 -190 -318 -190 -336 0 -32 18
-57 53 -75 116 -60 570 -182 797 -214 85 -12 186 -28 225 -37 55 -12 138 -15
380 -15 290 -1 319 1 455 25 80 14 186 31 237 37 50 5 120 19 155 30 35 10
104 28 155 39 99 22 355 104 389 126 11 7 43 20 70 28 45 14 203 83 249 109
11 7 58 33 105 59 78 42 110 61 254 150 168 104 519 430 633 589 114 160 207
330 248 458 30 93 67 134 137 152 24 6 59 17 80 25 20 8 74 24 120 35 45 12
106 32 134 45 28 14 71 29 95 34 51 12 330 151 409 204 30 20 60 37 66 37 6 0
18 7 25 16 8 9 30 27 50 40 60 37 248 204 341 302 141 149 250 287 337 431 19
31 40 61 45 67 13 13 180 347 225 449 98 223 248 730 281 950 6 44 23 133 36
199 13 65 33 207 44 315 12 108 31 270 43 361 21 158 22 199 22 910 0 706 -2
755 -23 930 -12 102 -31 318 -42 480 -11 162 -29 349 -40 415 -10 66 -29 210
-40 320 -11 110 -31 270 -45 355 -13 85 -29 196 -35 245 -6 50 -25 169 -40
265 -16 96 -38 235 -50 309 -37 244 -80 323 -152 280z m-3798 -4293 c271 -67
503 -294 690 -676 99 -200 120 -247 120 -264 0 -8 14 -53 30 -98 34 -91 112
-394 129 -498 48 -300 46 -941 -5 -1210 -19 -100 -38 -125 -95 -124 -100 2
-491 205 -694 360 -163 124 -463 444 -536 570 -16 29 -35 57 -43 63 -8 6 -20
26 -27 44 -6 18 -22 46 -35 63 -29 39 -121 266 -167 409 -46 144 -60 260 -60
480 1 254 18 349 87 490 59 120 143 230 205 270 22 13 42 29 46 35 9 14 128
69 185 86 59 17 103 17 170 0z"/>
<path d="M2459 9686 c-2 -3 -63 -14 -134 -26 -138 -22 -350 -80 -401 -109 -17
-10 -56 -28 -86 -39 -75 -28 -237 -118 -341 -189 -17 -12 -54 -37 -82 -56 -70
-47 -277 -235 -359 -326 -38 -42 -94 -110 -125 -151 -31 -42 -66 -89 -78 -105
-34 -46 -124 -199 -176 -300 -98 -191 -174 -401 -206 -572 -11 -54 -24 -109
-29 -123 -32 -82 -50 -482 -24 -527 l13 -23 672 1 c370 1 726 4 792 8 119 6
120 6 129 34 7 19 6 58 -4 125 -25 176 -24 224 5 366 59 282 224 495 480 618
l90 43 135 -1 c219 -1 349 -50 524 -195 163 -135 336 -359 432 -559 14 -30 34
-66 43 -80 21 -29 81 -164 118 -260 13 -36 33 -82 43 -102 11 -20 26 -65 35
-99 9 -34 29 -95 46 -135 16 -41 29 -88 29 -104 0 -40 -32 -70 -72 -70 -18 0
-70 -6 -114 -14 -45 -8 -158 -22 -250 -31 -189 -18 -215 -23 -539 -104 -317
-78 -632 -193 -890 -322 -84 -43 -261 -142 -300 -169 -22 -15 -80 -53 -130
-86 -192 -125 -420 -323 -594 -516 -123 -137 -223 -264 -252 -320 -10 -20 -23
-38 -28 -40 -14 -5 -140 -222 -208 -358 -69 -138 -99 -210 -148 -347 -18 -50
-36 -96 -40 -102 -3 -6 -22 -71 -41 -144 -130 -498 -161 -741 -151 -1197 6
-264 18 -393 42 -470 8 -25 21 -84 30 -132 8 -47 31 -133 50 -191 19 -58 35
-111 35 -118 0 -31 143 -339 223 -480 18 -31 57 -91 87 -133 30 -43 66 -95 80
-116 55 -83 145 -183 282 -312 197 -186 204 -192 368 -300 175 -114 228 -146
299 -175 29 -13 59 -27 65 -32 7 -6 57 -29 112 -52 237 -98 590 -190 809 -210
134 -13 635 -5 725 10 248 43 633 165 785 248 17 9 55 29 85 44 100 51 259
153 347 224 100 80 412 381 451 437 143 200 302 447 302 469 0 5 12 33 27 62
41 81 112 246 135 312 12 33 27 69 35 80 7 11 13 40 13 66 l0 46 -117 42 c-65
23 -161 55 -213 70 -52 16 -111 35 -131 44 -20 8 -69 22 -109 31 -40 9 -90 26
-111 36 -21 11 -68 27 -103 35 -36 8 -99 29 -140 45 -41 17 -79 30 -84 30 -6
0 -79 23 -162 50 -232 76 -245 73 -290 -86 -31 -107 -157 -380 -212 -458 -16
-21 -28 -43 -28 -48 0 -23 -126 -180 -199 -248 -95 -90 -125 -113 -177 -135
-21 -10 -59 -26 -82 -36 -88 -39 -163 -51 -362 -56 -238 -7 -340 5 -462 53
-48 19 -92 34 -97 34 -21 0 -179 88 -256 142 -102 72 -306 283 -367 379 -87
139 -174 327 -198 429 -7 30 -23 85 -36 121 -14 40 -33 144 -49 265 -14 109
-31 237 -37 282 -9 65 -9 102 1 165 6 45 23 164 36 263 13 100 31 199 40 220
9 22 27 79 41 127 31 111 150 350 242 488 176 261 452 509 730 654 37 19 74
39 82 45 68 42 407 160 595 205 161 39 186 43 335 55 430 33 420 33 741 11
350 -25 354 -25 474 -56 50 -13 124 -26 165 -29 41 -4 113 -20 161 -36 101
-35 120 -36 143 -12 26 30 96 217 185 497 16 50 38 113 49 140 12 28 32 86 46
130 13 44 31 100 40 125 59 175 87 273 84 297 -3 29 -22 38 -221 108 -213 75
-405 234 -556 460 -108 162 -184 332 -288 645 -14 41 -34 100 -45 130 -11 30
-35 97 -54 148 -18 52 -37 99 -42 105 -5 7 -19 37 -30 67 -48 132 -160 341
-307 573 -129 204 -448 523 -633 632 -274 163 -444 214 -807 245 -120 10 -348
14 -356 6z"/>
<path d="M16165 8694 c-16 -14 -47 -36 -67 -50 -21 -13 -74 -54 -118 -91 -78
-67 -125 -104 -263 -211 -62 -48 -186 -153 -365 -311 -88 -77 -124 -128 -111
-154 30 -56 787 -861 916 -974 l63 -55 166 158 c92 88 246 245 344 349 98 105
198 205 223 222 l45 33 228 -238 c319 -332 466 -476 503 -491 29 -12 34 -11
70 13 73 51 792 806 921 966 l34 43 -94 90 c-125 118 -505 437 -665 557 -41
30 -99 75 -130 100 -76 60 -102 73 -130 66 -19 -5 -172 -117 -254 -187 -14
-12 -41 -33 -60 -47 -86 -64 -279 -231 -441 -382 -175 -163 -248 -220 -282
-220 -24 0 -23 21 2 27 13 3 24 20 32 47 7 22 26 59 43 81 16 23 46 74 65 114
l35 74 -25 16 c-14 9 -45 34 -70 57 -25 22 -83 71 -130 107 -47 37 -107 85
-135 108 -281 227 -292 232 -350 183z"/>
<path d="M3477 4923 c-20 -16 -109 -109 -198 -208 -90 -99 -244 -265 -344
-370 -100 -104 -189 -201 -198 -215 -36 -52 -27 -68 140 -247 285 -305 581
-608 606 -622 45 -24 58 -13 493 444 324 341 353 377 337 422 -4 10 -25 43
-48 73 -23 30 -64 86 -90 124 -87 125 -302 362 -414 458 -219 187 -221 188
-284 141z"/>
</g>
</svg>
